# xmcd
#
# Track frame offsets:
#	150
#	11235
#	29820
#	42705
#	54643
#	65413
#	78520
#	93780
#	103545
#	118295
#	128913
#	148428
#	159583
#	172048
#
# Disc length: 2488 seconds
#
# Revision: 3
# Processed by: cddbd v1.5.2PL0 Copyright (c) Steve Scherf et al.
# Submitted via: audiograbber 1.83.01
#
DISCID=d309b60e
DTITLE=Aretha Franklin - I Never Loved A Man The Way I Love You
DYEAR=1967
DGENRE=Soul
TTITLE0=Respect
TTITLE1=Drown In My Own Tears
TTITLE2=I Never Loved A Man (The Way I Love You)
TTITLE3=Soul Serenade
TTITLE4=Don't Let Me Lose This Dream
TTITLE5=Baby, Baby, Baby
TTITLE6=Dr. Feelgood (Love Is A Serious Business)
TTITLE7=Good Times
TTITLE8=Do Right Woman - Do Right Man
TTITLE9=Save Me
TTITLE10=A Change Is Gonna Come
TTITLE11=Respect (stereo version)
TTITLE12=I Never Loved A Man (The Way I Love You) (stereo)
TTITLE13=Do Right Woman - Do Right Man (stereo)
EXTD=
EXTT0=
EXTT1=
EXTT2=
EXTT3=
EXTT4=
EXTT5=
EXTT6=
EXTT7=
EXTT8=
EXTT9=
EXTT10=
EXTT11=
EXTT12=
EXTT13=
PLAYORDER=
